<svg
    xmlns="http://www.w3.org/2000/svg"
    viewBox="0 0 630 630"
>
    <rect width="630" height="630" fill="#f7df1e" />
    <path
        d="M423.2 492.19c12.36 20.23 28.4 35.08 56.8 35.08
       23.84 0 39.1-11.92 39.1-28.4
       0-19.7-15.65-26.7-41.96-38.2l-14.4-6.2
       c-41.56-17.75-69.2-40.05-69.2-87.17
       0-43.42 33.1-76.63 84.63-76.63
       36.78 0 63.25 12.8 82.24 46.37l-45.06 28.96
       c-9.9-17.75-20.6-24.7-37.18-24.7
       -16.9 0-27.65 10.73-27.65 24.7
       0 17.3 10.73 24.3 35.5 35.08l14.4 6.2
       c48.94 21 76.58 42.5 76.58 90.67
       0 51.9-40.84 80.3-95.72 80.3
       -53.6 0-88.18-25.6-105.07-59.1z
       M279.3 497.2c9.07 16.1 17.3 29.7 37.18 29.7
       18.98 0 30.9-7.45 30.9-36.44V292.65h57.6v201.9
       c0 61.2-35.83 89.1-88.18 89.1
       -47.3 0-74.8-24.5-88.8-54.07z"
        fill="#000"
    />
</svg>