<svg xmlns="http://www.w3.org/2000/svg" viewBox="0 0 24 24" width="100" height="100">
  <path fill="#06B6D4"
    d="M12.001 4.8c-3.2 0-5.2 1.6-6 4.8 1.2-1.6 2.6-2.2 4.2-1.8 1 .2 1.7.9 2.5 1.7 1.2 1.3 2.6 2.8 5.3 2.8 3.2 0 5.2-1.6 6-4.8-1.2 1.6-2.6 2.2-4.2 1.8-.9-.2-1.6-.9-2.4-1.7-1.2-1.3-2.6-2.8-5.4-2.8zm-6 7.2c-3.2 0-5.2 1.6-6 4.8 1.2-1.6 2.6-2.2 4.2-1.8 1 .2 1.7.9 2.5 1.7 1.2 1.3 2.6 2.8 5.3 2.8 3.2 0 5.2-1.6 6-4.8-1.2 1.6-2.6 2.2-4.2 1.8-.9-.2-1.6-.9-2.4-1.7-1.2-1.3-2.6-2.8-5.4-2.8z" />
</svg>